<svg xmlns="http://www.w3.org/2000/svg" width="32" height="32" fill="none"><g fill="#888" clip-path="url(#celings_svg__a)"><path d="M30.4 5.334a1.608 1.608 0 0 0 1.6-1.6 1.6 1.6 0 0 0-1.6-1.6h-.533V1.6A1.56 1.56 0 0 0 29.4.476 1.565 1.565 0 0 0 28.267 0a1.6 1.6 0 0 0-1.6 1.6v.534h-2.134V1.6a1.56 1.56 0 0 0-.466-1.124A1.565 1.565 0 0 0 22.933 0a1.6 1.6 0 0 0-1.6 1.6v.534H19.2V1.6a1.56 1.56 0 0 0-.466-1.124A1.565 1.565 0 0 0 17.6 0 1.6 1.6 0 0 0 16 1.6v.534h-1.765A2.133 2.133 0 0 0 12.102 0H2.667A2.67 2.67 0 0 0 0 2.667v26.667A2.67 2.67 0 0 0 2.667 32h26.666A2.67 2.67 0 0 0 32 29.334v-9.435a2.133 2.133 0 0 0-2.133-2.133V16h.533a1.608 1.608 0 0 0 1.6-1.6 1.6 1.6 0 0 0-1.6-1.6h-.533v-2.133h.533a1.608 1.608 0 0 0 1.6-1.6 1.6 1.6 0 0 0-1.6-1.6h-.533V5.334h.533Zm0-2.134c.295 0 .533.239.533.534a.521.521 0 0 1-.163.38.515.515 0 0 1-.37.153h-.533V3.2h.533Zm-2.667-1.6c0-.294.24-.533.534-.533.143 0 .28.059.38.163a.51.51 0 0 1 .153.37v16.382c-.186.06-.362.121-.533.182-.172.06-.35.123-.534.18V1.6Zm-4.266 3.734v2.133H22.4V5.334h1.067Zm3.2 0v2.133h-2.134V5.334h2.134Zm-7.467 9.6v-1.067h7.467v1.066H19.2Zm7.467-6.4V9.6H19.2V8.534h7.467ZM22.4 12.8v-2.133h1.067V12.8H22.4Zm-3.2 0v-2.133h2.133V12.8H19.2Zm5.333-2.133h2.134V12.8h-2.134v-2.133Zm-3.2-3.2H19.2V5.334h2.133v2.133ZM19.2 16h2.133v1.79c-.643-.135-1.3-.199-1.958-.19-.06 0-.116.007-.175.01V16Zm3.2 0h1.067v2.447c-.32-.083-.604-.182-.892-.283l-.175-.061V16Zm2.133 0h2.134v2.586c-.413.057-.83.084-1.246.08-.334 0-.624-.014-.888-.038V16ZM22.4 1.6c0-.294.239-.533.533-.533.144 0 .281.059.38.163a.51.51 0 0 1 .154.37v.534H22.4V1.6Zm4.267 1.6v1.067H19.2V3.2h7.467Zm-9.6-1.6c0-.294.238-.533.533-.533.144 0 .281.059.38.163a.51.51 0 0 1 .153.37v16.163a6.363 6.363 0 0 0-1.066.38V1.6Zm-2.856 9.067H16V12.8h-1.61c0-.06.01-.118.01-.179a8.951 8.951 0 0 0-.19-1.954ZM16 7.467h-2.628a9.596 9.596 0 0 1-.039-.892c-.002-.415.024-.83.08-1.241H16v2.133Zm0 1.067V9.6h-2.1l-.064-.18c-.1-.285-.2-.567-.282-.886H16Zm-1.763 5.333H16v1.066h-2.143c.158-.343.285-.7.38-1.066ZM13.305 16H16v2.694c-1.207.663-1.76.882-2.667-.027-.906-.91-.69-1.46-.028-2.667ZM16 4.267h-2.347c.058-.184.12-.359.182-.533.063-.175.122-.347.181-.534H16v1.067Zm14.933 15.632v9.434a1.6 1.6 0 0 1-1.6 1.6H2.667a1.6 1.6 0 0 1-1.6-1.6V2.668a1.6 1.6 0 0 1 1.6-1.6H12.1a1.07 1.07 0 0 1 1.04 1.317 9.684 9.684 0 0 1-.31.992 8.313 8.313 0 0 0-.564 3.2 8.31 8.31 0 0 0 .563 3.2c.356.905.527 1.873.503 2.845a5.574 5.574 0 0 1-.92 2.784c-.64 1.163-1.368 2.481.166 4.016 1.534 1.535 2.85.807 4.014.165a5.57 5.57 0 0 1 2.782-.92 7.314 7.314 0 0 1 2.846.504 8.305 8.305 0 0 0 3.2.563 8.3 8.3 0 0 0 3.2-.564c.326-.12.658-.224.995-.31a1.07 1.07 0 0 1 1.317 1.04Zm-.533-6.032c.295 0 .533.239.533.533a.521.521 0 0 1-.163.38.515.515 0 0 1-.37.154h-.533v-1.067h.533Zm0-5.333c.295 0 .533.238.533.533a.521.521 0 0 1-.163.38.515.515 0 0 1-.37.153h-.533V8.533h.533Z"></path><path d="M4.266 26.133a1.6 1.6 0 1 0 0 3.2 1.6 1.6 0 0 0 0-3.2Zm0 2.134a.533.533 0 1 1 0-1.067.533.533 0 0 1 0 1.067ZM9.6 2.667a1.6 1.6 0 1 0 0 3.2 1.6 1.6 0 0 0 0-3.2Zm0 2.133a.533.533 0 1 1 0-1.067.533.533 0 0 1 0 1.067ZM4.8 25.067A.533.533 0 1 0 4.8 24a.533.533 0 0 0 0 1.067ZM8.533 8a.533.533 0 1 0 0-1.067.533.533 0 0 0 0 1.067ZM28.8 21.867a.533.533 0 1 0 0-1.067.533.533 0 0 0 0 1.067Z"></path><path fill-rule="evenodd" d="M25.806 26.246a.533.533 0 1 0 .653.843.533.533 0 0 0-.653-.843ZM24.74 20.913a.533.533 0 1 0 .653.843.533.533 0 0 0-.653-.843Z" clip-rule="evenodd"></path></g><defs><clipPath id="celings_svg__a"><path fill="#fff" d="M0 0h32v32H0z"></path></clipPath></defs></svg>