<svg xmlns="http://www.w3.org/2000/svg" width="32" height="32" fill="none"><g fill="#888" clip-path="url(#elevation_svg__a)"><path d="M1.067 20.8h10.666c.59 0 1.066-.478 1.067-1.067v-7.466c0-.59-.478-1.066-1.067-1.067H1.067C.477 11.2 0 11.678 0 12.267v7.466c0 .59.478 1.066 1.067 1.067Zm0-8.533h10.666v7.466H1.068v-7.466ZM1.067 32h4.266c.59 0 1.066-.478 1.067-1.067v-7.466c0-.59-.478-1.066-1.067-1.067H1.067C.477 22.4 0 22.878 0 23.467v7.466C0 31.523.478 32 1.067 32Zm0-8.533h4.266l.001 7.466H1.067v-7.466Z"></path><path d="M30.933 0H1.067C.477 0 0 .478 0 1.067v7.466C0 9.123.478 9.6 1.067 9.6h14.685c.3.511.559 1.046.772 1.6h-1.057c-.59 0-1.066.478-1.067 1.067v7.466c0 .59.478 1.066 1.067 1.067h1.026c-.007.241-.021.483-.019.721.004.282.018.578.036.879H9.067c-.59 0-1.066.478-1.067 1.067v7.466C8 31.523 8.478 32 9.067 32h21.866c.59 0 1.066-.478 1.067-1.067V1.067C32 .477 31.522 0 30.933 0ZM1.067 1.067h8.93a14.33 14.33 0 0 0 .072 2.24c.295 1.53 1.49 2.304 2.545 2.986l.171.11a9.049 9.049 0 0 1 2.26 2.13H1.066V1.067Zm14.4 11.2h1.399c.244.89.376 1.806.393 2.729a10.386 10.386 0 0 1-.338 2.44c-.08.36-.159.722-.225 1.096-.069.39-.115.794-.149 1.201h-1.08v-7.466Zm-6.4 11.2h7.55a14.704 14.704 0 0 0 2.992 7.466H9.067v-7.466Zm21.866 7.466h-9.91a13.407 13.407 0 0 1-3.409-8.048 17.715 17.715 0 0 1-.073-1.377c-.005-.398.006-.805.032-1.216.025-.528.083-1.054.174-1.575.063-.359.14-.707.216-1.052.228-.878.35-1.78.363-2.686a12.084 12.084 0 0 0-1.813-6.192 10.352 10.352 0 0 0-3.145-3.277l-.175-.113c-1.002-.648-1.868-1.208-2.075-2.278a16.54 16.54 0 0 1-.06-2.052h19.875v29.866Z"></path><path d="M12.188 3.002c.16.555.706.931 1.585 1.499l.18.117a11.374 11.374 0 0 1 3.463 3.6 13.215 13.215 0 0 1 1.39 3.05.534.534 0 0 0 1.017-.32 14.294 14.294 0 0 0-1.501-3.293 12.433 12.433 0 0 0-3.787-3.93l-.183-.12a4.877 4.877 0 0 1-1.126-.866l-.008-.108a.533.533 0 1 0-1.065.071l.016.204c.004.033.01.065.019.096ZM19.392 14.96a12.51 12.51 0 0 1-.394 2.967c-.07.32-.141.643-.2.975-.084.485-.138.974-.16 1.466-.024.375-.034.755-.03 1.127.005.408.028.84.069 1.288a12.59 12.59 0 0 0 2.654 6.89.534.534 0 1 0 .822-.68 11.695 11.695 0 0 1-2.414-6.308 15.844 15.844 0 0 1-.064-1.203c-.005-.346.005-.697.028-1.053.02-.45.069-.898.145-1.342.056-.316.125-.624.2-.964.265-1.04.403-2.108.411-3.18a.533.533 0 0 0-.533-.525h-.009a.531.531 0 0 0-.525.542Z"></path></g><defs><clipPath id="elevation_svg__a"><path fill="#fff" d="M0 0h32v32H0z"></path></clipPath></defs></svg>