<svg xmlns="http://www.w3.org/2000/svg" width="32" height="32" fill="none"><path fill="#888" d="M30.325 2.5h-4.891V1a.506.506 0 0 0-.143-.354.484.484 0 0 0-.346-.146h-1.957a.484.484 0 0 0-.346.146A.506.506 0 0 0 22.5 1v1.5H8.314V1a.506.506 0 0 0-.143-.354A.484.484 0 0 0 7.825.5H5.87a.484.484 0 0 0-.346.146A.506.506 0 0 0 5.38 1v1.5H3.912c-.908 0-1.779.369-2.42 1.025A3.54 3.54 0 0 0 .487 6c0 .928.361 1.819 1.003 2.475A3.387 3.387 0 0 0 3.912 9.5H5.38v1H.977a.484.484 0 0 0-.345.146.506.506 0 0 0-.144.354v20c0 .133.052.26.144.354a.484.484 0 0 0 .345.146h19.566c.13 0 .254-.053.346-.146a.506.506 0 0 0 .143-.354v-1.5h1.467V31c0 .133.052.26.143.354a.484.484 0 0 0 .346.146h1.957c.13 0 .254-.053.346-.146a.506.506 0 0 0 .143-.354v-1.5h1.956c.909 0 1.78-.369 2.421-1.025A3.54 3.54 0 0 0 30.814 26a3.54 3.54 0 0 0-1.003-2.475 3.386 3.386 0 0 0-2.42-1.025h-1.957v-1h1.956c.909 0 1.78-.369 2.421-1.025A3.54 3.54 0 0 0 30.814 18a3.54 3.54 0 0 0-1.003-2.475 3.386 3.386 0 0 0-2.42-1.025h-1.957v-1h1.956c.909 0 1.78-.369 2.421-1.025A3.54 3.54 0 0 0 30.814 10a3.54 3.54 0 0 0-1.003-2.475 3.387 3.387 0 0 0-2.42-1.025h-1.957v-1h4.891c.13 0 .254-.053.346-.146A.506.506 0 0 0 30.814 5V3a.506.506 0 0 0-.143-.354.484.484 0 0 0-.346-.146Zm-6.848-1h.979v1h-.979v-1Zm-17.12 0h.98v1h-.98v-1Zm0 8h.98v1h-.98v-1Zm21.034 0c.13 0 .254.053.345.146a.505.505 0 0 1 0 .708.484.484 0 0 1-.346.146h-1.956v-1h1.956Zm-2.935 1h-.979v-1h.979v1Zm-1.957 0H8.314v-1H22.5v1Zm-11.25 4v-1H22.5v1H11.25Zm16.142 3c.13 0 .254.053.345.146a.506.506 0 0 1 0 .708.484.484 0 0 1-.346.146h-1.956v-1h1.956Zm-2.935 1h-.979v-1h.979v1Zm-1.957 0H11.25v-1H22.5v1Zm-12.228-7v9H1.467v-9h8.804Zm-8.804 10h8.804v9H1.467v-9Zm18.586 9H11.25v-9h8.804v9Zm.979-9h1.467v1h-1.467v-1Zm0 4h1.467v1h-1.467v-1Zm6.358 0c.13 0 .255.053.346.146a.506.506 0 0 1 0 .708.484.484 0 0 1-.346.146h-1.956v-1h1.956Zm-2.934 1h-.979v-1h.979v1Zm0 4h-.979v-1h.979v1Zm5.38-4.5c0 .663-.259 1.298-.717 1.767a2.422 2.422 0 0 1-1.729.733h-6.358v-1h6.358c.39 0 .763-.158 1.038-.44.275-.28.43-.662.43-1.06s-.155-.78-.43-1.06a1.452 1.452 0 0 0-1.038-.44h-6.358v-1h6.358c.649 0 1.27.264 1.729.733.458.469.716 1.104.717 1.767Zm-5.38-3.5h-.979v-1h.979v1Zm5.38-4.5c0 .663-.259 1.298-.717 1.767a2.422 2.422 0 0 1-1.729.733H11.25v-1h16.14c.39 0 .763-.158 1.038-.44.275-.28.43-.662.43-1.06s-.155-.78-.43-1.06a1.452 1.452 0 0 0-1.038-.44H11.25v-1h16.14c.649 0 1.27.264 1.729.733.458.469.716 1.104.717 1.767Zm-5.38-3.5h-.979v-1h.979v1Zm0-8h-.979v-1h.979v1Zm-20.544 0a.484.484 0 0 1-.346-.146.506.506 0 0 1 0-.708.484.484 0 0 1 .346-.146H5.38v1H3.912Zm2.446-1h.978v1h-.978v-1Zm1.956 0H22.5v1H8.314v-1Zm21.522-1H3.912c-.389 0-.762.158-1.037.44-.276.28-.43.662-.43 1.06s.154.78.43 1.06c.275.282.648.44 1.037.44h23.479c.648 0 1.27.263 1.729.732.458.47.716 1.105.716 1.768s-.258 1.299-.716 1.768a2.42 2.42 0 0 1-1.73.732H11.25v-1h16.14c.39 0 .763-.158 1.038-.44.275-.28.43-.662.43-1.06s-.155-.78-.43-1.06a1.452 1.452 0 0 0-1.038-.44H3.912c-.648 0-1.27-.263-1.73-.732A2.528 2.528 0 0 1 1.468 6c0-.663.257-1.299.716-1.768a2.419 2.419 0 0 1 1.73-.732h25.923v1Z"></path></svg>