<svg xmlns="http://www.w3.org/2000/svg" width="32" height="32" fill="none"><path fill="#888" d="M1.5 31h24a.5.5 0 0 0 .5-.5v-4a.5.5 0 0 0-.5-.5h-3v-1.285c.55.02 1.1-.025 1.64-.133a6.624 6.624 0 0 0 4.656-3.556 6.701 6.701 0 0 0 .704-2.982V8.5h1a.5.5 0 0 0 .4-.8l-3-4a.5.5 0 0 0-.8 0l-3 4a.5.5 0 0 0 .4.8h1v4.994a3.656 3.656 0 0 1-1.379 2.869 2.908 2.908 0 0 1-3.117.33L18.618 15.5a4.736 4.736 0 0 0-4.236 0l-2.21 1.105A3.76 3.76 0 0 1 10.5 17c-.58 0-1.151-.136-1.67-.394l-2.39-1.195a3.899 3.899 0 0 0-.94-.326V12.08L7.078 11l1.461-1 1.462-1h6.998l1.462 1 1.461 1 1.578 1v4h1v-3.236l.218.149a.5.5 0 0 0 .698-.136l1-1.5a.5.5 0 0 0-.125-.684L21.5 8.6V1.5A.5.5 0 0 0 21 1h-3a.5.5 0 0 0-.5.5v4.243l-3.71-2.65a.5.5 0 0 0-.58 0l-10.5 7.5a.5.5 0 0 0-.126.684l1 1.5a.5.5 0 0 0 .698.136l.218-.15v2.24c-.81.034-1.59.312-2.238.8L1.6 16.3c-.173.13-.384.2-.6.2v1c.433 0 .853-.141 1.2-.4l.662-.497A2.998 2.998 0 0 1 4.675 16H4.7c.45 0 .892.105 1.293.305l2.39 1.195a4.756 4.756 0 0 0 2.116.5h.001a4.765 4.765 0 0 0 2.119-.5l2.21-1.106a3.736 3.736 0 0 1 3.342 0l2.386 1.193a3.908 3.908 0 0 0 4.189-.443 4.651 4.651 0 0 0 1.754-3.65V8a.5.5 0 0 0-.5-.5h-.5l2-2.667 2 2.667H29a.5.5 0 0 0-.5.5v6.544a5.696 5.696 0 0 1-2.225 4.507 5.632 5.632 0 0 1-2.33 1.05 6.02 6.02 0 0 1-3.645-.404l-1.683-.748A5.18 5.18 0 0 0 16.5 18.5a4.76 4.76 0 0 0-2.118.5l-2.21 1.105a3.76 3.76 0 0 1-1.672.395c-.58 0-1.151-.136-1.67-.394l-2.39-1.195A3.91 3.91 0 0 0 4.7 18.5h-.025a3.99 3.99 0 0 0-2.413.803L1.6 19.8c-.173.13-.384.2-.6.2v1c.433 0 .853-.141 1.2-.4l.662-.497a2.998 2.998 0 0 1 1.813-.603H4.7c.45 0 .892.105 1.293.305L8.383 21a4.756 4.756 0 0 0 2.116.5h.001a4.765 4.765 0 0 0 2.119-.5l2.21-1.106A3.756 3.756 0 0 1 16.5 19.5c.59 0 1.172.123 1.71.363l1.684.748a7.013 7.013 0 0 0 4.246.47 6.618 6.618 0 0 0 4.36-3.024 5.696 5.696 0 0 1-2.225 4.494 5.632 5.632 0 0 1-2.33 1.05 6.02 6.02 0 0 1-3.645-.404l-1.683-.748A5.18 5.18 0 0 0 16.5 22a4.76 4.76 0 0 0-2.118.5l-2.21 1.105A3.76 3.76 0 0 1 10.5 24c-.58 0-1.151-.136-1.67-.394l-2.39-1.195A3.91 3.91 0 0 0 4.7 22h-.025a3.99 3.99 0 0 0-2.413.803L1.6 23.3c-.173.13-.384.2-.6.2v1c.433 0 .853-.141 1.2-.4l.662-.497A2.998 2.998 0 0 1 4.675 23H4.7c.45 0 .892.105 1.293.305l2.39 1.195a4.756 4.756 0 0 0 2.116.5h.001a4.765 4.765 0 0 0 2.119-.5l2.21-1.106A3.756 3.756 0 0 1 16.5 23c.59 0 1.172.123 1.71.363l1.684.748a7.068 7.068 0 0 0 1.606.496V26h-5a.5.5 0 0 0-.5.5v.5h-4.5v-.5a.5.5 0 0 0-.5-.5H5.5v-2h-1v2h-3a.5.5 0 0 0-.5.5v4a.5.5 0 0 0 .5.5Zm9.962-23L13.5 6.606 15.538 8h-4.076ZM18.5 2h2v5.886l-2-1.429V2ZM4.135 11.802l-.45-.676L13.5 4.114l9.815 7.012-.45.676-9.083-6.215a.5.5 0 0 0-.564 0l-9.083 6.215ZM25 30h-5.5v-3H25v3Zm-8-3h2.5v3H17v-3Zm-5.5 3v-.5H16v.5h-4.5Zm4.5-3v2.5h-4.5V27H16Zm-5.5 3H9v-3h1.5v3ZM2 27h7v3H2v-3Z"></path></svg>