<svg xmlns="http://www.w3.org/2000/svg" width="32" height="32" fill="none"><g clip-path="url(#installation_svg__a)"><mask id="installation_svg__b" width="44" height="44" x="-6" y="-6" maskUnits="userSpaceOnUse" style="mask-type:luminance"><path fill="#fff" d="M37.337 37.33H-5.33V-5.338h42.667v42.666Z"></path></mask><g fill="#888" mask="url(#installation_svg__b)"><path d="M13.495 31.998H1.471A1.47 1.47 0 0 1 .002 30.53V2.475A2.477 2.477 0 0 1 2.477 0h10.018a2.477 2.477 0 0 1 2.475 2.475V30.53a1.48 1.48 0 0 1-1.475 1.468ZM2.471.938A1.54 1.54 0 0 0 .933 2.474V30.53a.53.53 0 0 0 .531.531h12.031a.53.53 0 0 0 .531-.531V2.475A1.54 1.54 0 0 0 12.49.937H2.47Z"></path><path d="M14.494 18.973h-1a.472.472 0 0 1-.469-.469c0-.256.213-.469.47-.469h1c.255 0 .468.213.468.47a.468.468 0 0 1-.469.468ZM11.493 18.973H.47A.472.472 0 0 1 0 18.504c0-.256.212-.469.469-.469h11.024c.256 0 .469.213.469.47a.472.472 0 0 1-.469.468ZM30.528 31.998H18.504a1.47 1.47 0 0 1-1.469-1.468V15.5a1.47 1.47 0 0 1 1.469-1.47h12.024a1.47 1.47 0 0 1 1.469 1.47v15.03a1.47 1.47 0 0 1-1.469 1.468Zm-12.024-17.03a.53.53 0 0 0-.531.531v15.03a.53.53 0 0 0 .53.532h12.025a.53.53 0 0 0 .532-.531V15.5a.53.53 0 0 0-.532-.532H18.504ZM29.526 8.953H19.508a1.471 1.471 0 0 1-1.469-1.468V1.472A1.47 1.47 0 0 1 19.508.004h10.018c.813 0 1.469.662 1.469 1.468v6.013c0 .806-.657 1.468-1.469 1.468ZM19.508.935a.53.53 0 0 0-.531.531v6.019a.53.53 0 0 0 .53.53h10.019a.53.53 0 0 0 .531-.53V1.472a.53.53 0 0 0-.531-.53H19.508V.934ZM1.969 16.969h-1.5A.472.472 0 0 1 0 16.5c0-.256.212-.468.469-.468h1.5c.018 0 .03-.013.03-.032v-3.506c0-.019-.012-.031-.03-.031h-1.5A.472.472 0 0 1 0 11.994c0-.256.212-.469.469-.469h1.5a.97.97 0 0 1 .968.97V16a.965.965 0 0 1-.968.969ZM1.969 25.486h-1.5a.472.472 0 0 1-.469-.47c0-.255.212-.468.469-.468h1.5c.018 0 .03-.012.03-.031v-3.506c0-.019-.012-.031-.03-.031h-1.5A.472.472 0 0 1 0 20.51c0-.255.212-.468.469-.468h1.5a.97.97 0 0 1 .968.969v3.506a.966.966 0 0 1-.968.969ZM8.485 6.95H6.478a.97.97 0 0 1-.968-.97v-1a.97.97 0 0 1 .968-.968h2.007a.97.97 0 0 1 .968.969v1a.97.97 0 0 1-.968.968ZM6.478 4.942c-.018 0-.03.013-.03.031v1.007c0 .018.012.03.03.03h2.007c.018 0 .03-.012.03-.03v-1c0-.02-.012-.032-.03-.032H6.478v-.006Z"></path><path d="M31.532 18.973h-14.03a.472.472 0 0 1-.469-.469c0-.256.213-.469.469-.469h14.03c.257 0 .47.213.47.47a.472.472 0 0 1-.47.468Z"></path><path d="M22.512 18.973a.472.472 0 0 1-.469-.469v-1.537h-2.068v1.537a.472.472 0 0 1-.47.469.472.472 0 0 1-.468-.469v-2.006c0-.256.213-.469.469-.469h3.006c.256 0 .469.213.469.469v2.006a.472.472 0 0 1-.47.469ZM25.52 18.97a1.472 1.472 0 0 1-1.475-1.468 1.472 1.472 0 0 1 2.943 0c0 .813-.662 1.469-1.468 1.469Zm0-1.999a.53.53 0 1 0-.001 1.061.53.53 0 0 0 0-1.061ZM29.525 16.969h-1.5a.472.472 0 0 1-.468-.469c0-.256.212-.468.468-.468h1.5c.257 0 .469.212.469.468a.472.472 0 0 1-.469.469ZM24.518 29.492a4.478 4.478 0 0 1-4.475-4.475 4.478 4.478 0 0 1 4.475-4.475 4.478 4.478 0 0 1 4.474 4.475 4.478 4.478 0 0 1-4.474 4.475Zm0-8.012a3.542 3.542 0 0 0-3.538 3.537 3.542 3.542 0 0 0 3.538 3.537 3.542 3.542 0 0 0 3.537-3.537 3.542 3.542 0 0 0-3.537-3.537Z"></path><path d="M24.512 27.49a2.477 2.477 0 0 1-2.475-2.475 2.476 2.476 0 0 1 2.475-2.475c.212 0 .419.025.619.082a.468.468 0 0 1-.232.906 1.6 1.6 0 0 0-.38-.05 1.54 1.54 0 0 0-1.538 1.537 1.54 1.54 0 0 0 1.537 1.538 1.54 1.54 0 0 0 1.488-1.925.468.468 0 0 1 .906-.232c.05.207.075.413.075.62a2.477 2.477 0 0 1-2.475 2.474ZM27.521 8.956a.472.472 0 0 1-.468-.469V.47c0-.257.212-.469.468-.469.257 0 .47.212.47.469v8.018a.472.472 0 0 1-.47.469Z"></path><path d="M30.528 3.943h-3.006a.472.472 0 0 1-.47-.468c0-.257.213-.47.47-.47h3.006c.256 0 .468.213.468.47a.472.472 0 0 1-.468.468ZM25.516 6.947h-5.012a.472.472 0 0 1-.469-.468V2.473c0-.257.213-.47.469-.47h2.006c.256 0 .469.213.469.47a.472.472 0 0 1-.469.468h-1.537V6.01h4.074V2.941h-.53a.472.472 0 0 1-.47-.468c0-.257.213-.47.47-.47h1c.255 0 .468.213.468.47v4.006a.464.464 0 0 1-.469.468ZM24.516 14.965a.472.472 0 0 1-.47-.469V8.484c0-.256.213-.469.47-.469.256 0 .468.213.468.47v6.011a.472.472 0 0 1-.468.469ZM17.502 23.482h-3.006a.472.472 0 0 1-.469-.469c0-.256.213-.469.47-.469h3.005c.256 0 .469.213.469.469a.472.472 0 0 1-.469.469ZM18.504 4.945h-4.006a.472.472 0 0 1-.469-.468c0-.257.213-.47.469-.47h4.006c.256 0 .469.213.469.47a.472.472 0 0 1-.469.468Z"></path></g></g><defs><clipPath id="installation_svg__a"><path fill="#fff" d="M0 0h32v32H0z"></path></clipPath></defs></svg>