<svg xmlns="http://www.w3.org/2000/svg" width="32" height="32" fill="none"><path fill="#888" d="M.729 20.42a.5.5 0 0 0 .476.036l1.295-.582V21.5a.5.5 0 0 0 .707.455l.793-.36V27.5a.5.5 0 0 0 .5.5h23a.5.5 0 0 0 .5-.5V10.685l2.707-1.23a.5.5 0 0 0 .24-.678l-.697-1.392.953-.429a.5.5 0 0 0 .243-.68l-1-2a.5.5 0 0 0-.65-.232l-29 13A.5.5 0 0 0 .5 17.5V20a.5.5 0 0 0 .229.42ZM6 27H5v-5.86l1-.454V27Zm5 0H7v-6.769l4-1.819V27Zm2 0h-1v-9.042l1-.454V27Zm5 0h-4v-9.95l4-1.818V27Zm2 0h-1V14.777l1-.455V27Zm5 0h-4V13.867l4-1.817V27Zm2 0h-1V11.595l1-.455V27ZM3.5 20.724v-1.3L29.339 7.796l.482.964L3.5 20.724Zm-2-2.9L29.767 5.152l.553 1.105L1.5 19.227v-1.404Z"></path></svg>