<svg xmlns="http://www.w3.org/2000/svg" width="32" height="32" fill="none"><g fill="#888" clip-path="url(#styrofoam_svg__a)"><path d="M31.375 5.807h-2.286v-2.28a.625.625 0 0 0-.625-.625H26.18V.625A.632.632 0 0 0 25.555 0H.625A.625.625 0 0 0 0 .625v24.874c0 .34.284.626.625.626h2.284v2.277c0 .345.28.625.625.625H5.82v2.28c0 .345.28.625.625.625h24.93c.345 0 .625-.28.625-.625V6.432a.625.625 0 0 0-.625-.625Zm-20.93 19.068 4.4-4.39 2.4-2.394 3.27 3.263-3.529 3.52h-6.54Zm-8.309 0 6.799-6.784 3.27 3.262-3.53 3.522H2.136Zm22.794-7.927L21.4 20.47l-3.27-3.262 6.8-6.786v6.526ZM13.09 20.47l-3.27-3.262L17.245 9.8l3.27 3.263-3.71 3.701-.003.003-.002.003-2.837 2.83-.873.871ZM1.25 10.422l2.644 2.64L1.25 15.7v-5.279Zm7.684-.624 3.271 3.264L8.51 16.75l-.018.016L4.78 20.47l-3.27-3.262 3.71-3.703.009-.01 3.705-3.697Zm4.598-4.585 3.713-3.705 3.27 3.263-3.694 3.686c-.006.006-.013.01-.019.017l-.015.017-3.697 3.689L9.82 8.916l3.703-3.695.01-.008Zm-9.637 16.14-2.645 2.64v-5.279l2.645 2.639ZM24.93 8.656 21.4 12.18l-3.27-3.264 6.8-6.784v6.524ZM21.4 3.888 18.756 1.25h5.288L21.4 3.888ZM8.493 8.473l-3.714 3.706-3.27-3.264 7.425-7.407 3.27 3.262-3.712 3.703ZM24.93 18.714v6.16h-6.174l6.174-6.16ZM15.733 1.25 13.09 3.887 10.446 1.25h5.287Zm-8.31 0L1.25 7.409V1.25h6.173ZM30.75 30.682H7.07v-1.655h7.577a.625.625 0 0 0 0-1.25H4.16v-1.652h21.396c.345 0 .625-.28.625-.625V4.152h1.66v23.625h-7.578a.625.625 0 0 0 0 1.25h8.202c.345 0 .625-.28.625-.625V7.057h1.661v23.625Z"></path><path d="M17.455 27.777a.625.625 0 0 0 0 1.25h.002a.624.624 0 1 0-.002-1.25Z"></path></g><defs><clipPath id="styrofoam_svg__a"><path fill="#fff" d="M0 0h32v32H0z"></path></clipPath></defs></svg>