<svg xmlns="http://www.w3.org/2000/svg" width="32" height="32" fill="none"><g fill="#888" clip-path="url(#brickwall_svg__a)"><path d="M.533 32.062h25.6a.533.533 0 0 0 .534-.533v-4.8H30.4a.533.533 0 0 0 .534-.534v-5.333a.533.533 0 0 0-.534-.533h-3.733v-4.8a.533.533 0 0 0-.534-.534h-.978a1.233 1.233 0 0 0-.218-.998l-2.41-3.213 1.113-.835c.494-.37.77-.963.735-1.58l-.053-.96a.78.78 0 0 1 .31-.668l1.113-.834.468.624a.533.533 0 0 0 .747.106l4.4-3.3a1.6 1.6 0 0 0 .32-2.24L31.384.7a1.602 1.602 0 0 0-2.24-.319l-4.4 3.3a.534.534 0 0 0-.107.748l.468.624-1.113.834c-.494.37-.77.964-.735 1.58l.053.96a.779.779 0 0 1-.31.668l-1.113.835-2.41-3.213a1.237 1.237 0 0 0-1.086-.498c-.404.029-.765.263-.956.62l-4.383 8.155H.533A.533.533 0 0 0 0 15.53v5.333c0 .295.239.533.533.533h3.734v4.267H.533a.533.533 0 0 0-.533.533v5.334c0 .294.239.533.533.533Zm29.25-30.827a.533.533 0 0 1 .747.106l.297.396a.533.533 0 0 1-.107.746l-3.974 2.982-.936-1.249 3.974-2.981ZM9.6 26.73h7.467v4.266H9.6V26.73Zm4.267-5.334h7.466v4.267h-7.466v-4.267Zm11.733 9.6h-7.467V26.73H25.6v4.266Zm4.267-5.333H22.4v-4.267h7.467v4.267ZM25.6 20.329h-7.467v-3.106l5.46-1.161H25.6v4.267ZM18.375 7.346a.111.111 0 0 1 .097-.063h.01c.057 0 .11.029.142.075l2.41 3.213-2.2 1.65a.533.533 0 0 0 .64.854l2.2-1.65 2.41 3.212c.038.047.049.11.029.167a.112.112 0 0 1-.087.076l-10.581 2.25a.173.173 0 0 1-.17-.073.17.17 0 0 1-.022-.182l5.122-9.53Zm-5.953 10.351c.284.391.772.577 1.245.476l3.4-.723v2.879H9.6v-4.267h2.879l-.165.307c-.229.426-.186.946.108 1.328Zm-11.355.498h1.066a.533.533 0 1 0 0-1.066H1.067v-1.067h7.466v4.267H1.067v-2.134Zm4.266 3.2H12.8v4.267H5.333v-4.267ZM1.067 26.73h7.466v4.266H1.067V26.73Z"></path><path d="M6.934 17.662a.533.533 0 0 0-.533-.533H4.268a.533.533 0 0 0 0 1.066H6.4a.533.533 0 0 0 .533-.533Z"></path></g><defs><clipPath id="brickwall_svg__a"><path fill="#fff" d="M0 0h32v32H0z"></path></clipPath></defs></svg>