<svg xmlns="http://www.w3.org/2000/svg" width="32" height="32" fill="none"><path fill="#888" d="M30.527 28.771h-1.976V.481c0-.288-.192-.481-.482-.481H3.973c-.29 0-.482.193-.482.482v28.29H1.515c-.289 0-.482.192-.482.481v2.265c0 .29.193.482.482.482H30.48c.29 0 .482-.193.482-.482v-2.265c.048-.241-.193-.482-.434-.482ZM4.455.964h23.132V28.77h-1.253V2.651c0-.29-.192-.482-.482-.482H6.19c-.29 0-.482.192-.482.482v26.12H4.455V.964Zm12.048 18.94V12h8.868v7.904h-8.868Zm8.868.963v7.904h-8.868v-7.904h8.868Zm-8.868-9.83V3.132h8.868v7.903h-8.868Zm-9.831 8.867V12h8.867v7.904H6.672Zm8.867.963v7.904H6.672v-7.904h8.867Zm-8.867-9.83V3.132h8.867v7.903H6.672Zm-4.675 20v-1.302H30.045v1.301H1.997Z"></path></svg>