<svg width="32" height="32" viewBox="0 0 32 32" fill="none" xmlns="http://www.w3.org/2000/svg">
<g clip-path="url(#clip0_317_8461)">
<path d="M7.85547 7.87463C7.51047 7.87463 7.23047 8.15463 7.23047 8.49963C7.23047 8.84463 7.51047 9.12463 7.85547 9.12463C8.20047 9.12463 8.48047 8.84463 8.48047 8.49963C8.48047 8.15463 8.20047 7.87463 7.85547 7.87463Z" fill="#888888"/>
<path d="M13.4802 19.5615H11.6053V17.6866C11.6053 17.3415 11.3254 17.0616 10.9803 17.0616C10.6352 17.0616 10.3553 17.3415 10.3553 17.6866V19.5615H8.48047C8.13534 19.5615 7.85547 19.8414 7.85547 20.1865C7.85547 20.5315 8.13534 20.8115 8.48047 20.8115H10.3553V22.6863C10.3553 23.0315 10.6352 23.3113 10.9803 23.3113C11.3253 23.3113 11.6053 23.0315 11.6053 22.6863V20.8115H13.4802C13.8253 20.8115 14.1052 20.5316 14.1052 20.1865C14.1052 19.8413 13.8253 19.5615 13.4802 19.5615Z" fill="#888888"/>
<path d="M30.3478 20.124C28.9662 17.7311 25.9115 16.9122 23.5182 18.2941L20.9795 19.7597V14.3324C20.9795 13.6615 20.7577 12.9957 20.3546 12.4576L17.2298 8.29125V6.51713C17.9572 6.25913 18.4797 5.5645 18.4797 4.74969V1.87487C18.4796 0.841062 17.6385 0 16.6047 0H5.35528C4.32147 0 3.48034 0.841062 3.48034 1.87487V4.74975C3.48034 5.56444 4.00291 6.25919 4.73028 6.51719V8.29131L1.60522 12.4579C1.20234 12.9958 0.980469 13.6615 0.980469 14.3324V26.4362C0.980469 28.1593 2.38228 29.561 4.10528 29.561H14.1492C15.5505 31.9099 18.5721 32.6961 20.9407 31.3284L28.5179 26.9536C30.8901 25.5837 31.7363 22.5299 30.3478 20.124ZM4.73028 1.87487C4.73028 1.53025 5.01066 1.24987 5.35522 1.24987H16.6047C16.9493 1.24987 17.2297 1.53025 17.2297 1.87487V4.74975C17.2297 5.09438 16.9493 5.37469 16.6047 5.37469H5.35528C5.01066 5.37469 4.73034 5.09431 4.73034 4.74975L4.73028 1.87487ZM2.60547 13.2074L5.85522 8.87456C5.93634 8.76644 5.98022 8.63481 5.98022 8.49956V6.62469H15.9797V7.87463H10.355C10.0099 7.87463 9.73003 8.1545 9.73003 8.49963C9.73003 8.84475 10.0099 9.12463 10.355 9.12463H16.2922L19.3543 13.2072C19.5544 13.4744 19.6787 13.7941 19.7163 14.1244H2.24372C2.28122 13.7941 2.40553 13.4744 2.60547 13.2074ZM4.10534 28.3111C3.07153 28.3111 2.23047 27.47 2.23047 26.4362V25.805H13.5852C13.387 26.6153 13.3883 27.4808 13.6152 28.3111H4.10534V28.3111ZM14.0753 24.5613H2.23041V15.3742H19.7295V20.4813L15.9408 22.6689C15.1509 23.1252 14.5124 23.7748 14.0753 24.5613ZM20.3158 30.2459C18.5222 31.2816 16.2303 30.6691 15.194 28.8743C14.1527 27.0622 14.7837 24.7807 16.566 23.7512L19.9583 21.7926L23.7081 28.2873L20.3158 30.2459ZM27.8929 25.8712L24.7906 27.6624L21.0407 21.1676L24.1431 19.3766C25.9378 18.3404 28.2289 18.954 29.2653 20.7489C30.3062 22.5527 29.6732 24.8431 27.8929 25.8712Z" fill="#888888"/>
</g>
<defs>
<clipPath id="clip0_317_8461">
<rect width="32" height="32" fill="white"/>
</clipPath>
</defs>
</svg>
