<svg width="32" height="32" viewBox="0 0 32 32" fill="none" xmlns="http://www.w3.org/2000/svg">
<path d="M15.5 1H16.5V3H15.5V1Z" fill="#888888"/>
<path d="M15.5 13H16.5V15H15.5V13Z" fill="#888888"/>
<path d="M15.5 17H16.5V19H15.5V17Z" fill="#888888"/>
<path d="M15.5 21H16.5V23H15.5V21Z" fill="#888888"/>
<path d="M15.5 25H16.5V27H15.5V25Z" fill="#888888"/>
<path d="M15.5 29H16.5V31H15.5V29Z" fill="#888888"/>
<path d="M30.5 11C30.6326 11 30.7598 10.9473 30.8536 10.8536C30.9473 10.7598 31 10.6326 31 10.5V5.5C31 5.36739 30.9473 5.24021 30.8536 5.14644C30.7598 5.05268 30.6326 5 30.5 5H24.538L23.9955 0.933998L23.0045 1.066L23.529 5H22.538L21.9955 0.933998L21.0045 1.066L21.529 5H10.471L10.9955 1.066L10.0045 0.933998L9.462 5H8.471L8.9955 1.066L8.0045 0.933998L7.462 5H1.5C1.36739 5 1.24021 5.05268 1.14645 5.14644C1.05268 5.24021 1 5.36739 1 5.5V10.5C1 10.6326 1.05268 10.7598 1.14645 10.8536C1.24021 10.9473 1.36739 11 1.5 11H2V18H1V19H4V18H3V11H6.664L4.0045 30.934L4.9955 31.066L7.673 11H8.664L6.0045 30.934L6.9955 31.066L9.673 11H22.327L25.0045 31.066L25.9955 30.934L23.336 11H24.327L27.0045 31.066L27.9955 30.934L25.336 11H29V18H28V19H31V18H30V11H30.5ZM2 6H30V10H2V6Z" fill="#888888"/>
<path d="M6 7.5H10V8.5H6V7.5Z" fill="#888888"/>
<path d="M22 7.5H26V8.5H22V7.5Z" fill="#888888"/>
<path d="M14 7.5H18V8.5H14V7.5Z" fill="#888888"/>
</svg>
