<svg width="32" height="32" viewBox="0 0 32 32" fill="none" xmlns="http://www.w3.org/2000/svg">
<g clip-path="url(#clip0_317_8478)">
<path d="M16 0C7.17108 0 0 7.17108 0 16C0 24.8289 7.17108 32 16 32C24.8289 32 32 24.8289 32 16C32 7.17108 24.8289 0 16 0ZM16 30.612C7.94217 30.612 1.38795 24.0578 1.38795 16C1.38795 7.94217 7.94217 1.38795 16 1.38795C24.0578 1.38795 30.612 7.94217 30.612 16C30.612 24.0578 24.0578 30.612 16 30.612Z" fill="#888888"/>
<path d="M24.3279 12.5301H19.4701V7.67229C19.4701 7.28675 19.1616 6.97831 18.7761 6.97831H13.2243C12.8388 6.97831 12.5303 7.28675 12.5303 7.67229V12.5301H7.67249C7.28695 12.5301 6.97852 12.8386 6.97852 13.2241V18.7759C6.97852 19.1614 7.28695 19.4699 7.67249 19.4699H12.5303V24.3277C12.5303 24.7133 12.8388 25.0217 13.2243 25.0217H18.7761C19.1616 25.0217 19.4701 24.7133 19.4701 24.3277V19.4699H24.3279C24.7135 19.4699 25.0219 19.1614 25.0219 18.7759V13.2241C24.9833 12.8386 24.6749 12.5301 24.3279 12.5301ZM23.6725 18.0819H23.6339H18.7761C18.3906 18.0819 18.0821 18.3904 18.0821 18.7759V23.6337H13.9183V18.7759C13.9183 18.3904 13.6098 18.0819 13.2243 18.0819H8.36647V13.9181H13.2243C13.6098 13.9181 13.9183 13.6096 13.9183 13.2241V8.36627H18.1207V13.2241C18.1207 13.6096 18.4291 13.9181 18.8147 13.9181H23.6725V18.0819Z" fill="#888888"/>
</g>
<defs>
<clipPath id="clip0_317_8478">
<rect width="32" height="32" fill="white"/>
</clipPath>
</defs>
</svg>
