<svg width="32" height="32" viewBox="0 0 32 32" fill="none" xmlns="http://www.w3.org/2000/svg">
<g clip-path="url(#clip0_317_8471)">
<path d="M31.4667 26.6173H29.6713L20.8347 7.9044L21.2241 6.54121C21.324 6.19163 21.3513 5.82532 21.3045 5.46479C21.2576 5.10427 21.1374 4.75713 20.9515 4.44473C20.7655 4.13232 20.5176 3.86124 20.2231 3.64815C19.9285 3.43505 19.5935 3.28444 19.2386 3.20557L18.6111 3.06611C17.9476 2.91942 17.2531 3.03124 16.6692 3.37879C16.0853 3.72634 15.6559 4.28347 15.4685 4.93663L14.1502 9.55073H13.0788L12.3014 7.9044L12.6909 6.54121C12.7907 6.19163 12.8181 5.82532 12.7712 5.46479C12.7243 5.10427 12.6042 4.75713 12.4182 4.44473C12.2322 4.13232 11.9844 3.86124 11.6898 3.64815C11.3952 3.43505 11.0602 3.28444 10.7053 3.20557L10.0602 3.06224C9.40083 2.91758 8.71113 3.02764 8.12951 3.37033C7.54789 3.71302 7.11738 4.263 6.92438 4.90989L0.020231 29.1384C0.00111942 29.2058 -0.00452729 29.2763 0.00361314 29.3459C0.0117536 29.4155 0.0335218 29.4828 0.0676749 29.544C0.101828 29.6052 0.147697 29.659 0.202664 29.7025C0.25763 29.7459 0.320617 29.7781 0.388028 29.7972C0.45544 29.8164 0.525955 29.822 0.595549 29.8139C0.665143 29.8057 0.732452 29.784 0.793633 29.7498C0.854814 29.7157 0.908669 29.6698 0.952123 29.6148C0.995577 29.5599 1.02778 29.4969 1.04689 29.4295L1.84402 26.6173H9.27403L8.55404 29.1373C8.53478 29.2046 8.52897 29.2751 8.53694 29.3447C8.54492 29.4142 8.56652 29.4816 8.60052 29.5428C8.63452 29.604 8.68025 29.658 8.73509 29.7016C8.78994 29.7451 8.85283 29.7775 8.92017 29.7967C8.98751 29.816 9.05798 29.8218 9.12757 29.8138C9.19716 29.8058 9.26449 29.7842 9.32573 29.7502C9.38696 29.7162 9.4409 29.6705 9.48447 29.6157C9.52803 29.5608 9.56037 29.4979 9.57963 29.4306L13.0099 17.4245L18.7178 29.5118C18.761 29.6032 18.8293 29.6804 18.9147 29.7345C19 29.7886 19.099 29.8173 19.2001 29.8172H31.4667C31.6081 29.8172 31.7438 29.7611 31.8438 29.661C31.9438 29.561 32 29.4254 32 29.2839V27.1506C32 27.0092 31.9438 26.8735 31.8438 26.7735C31.7438 26.6735 31.6081 26.6173 31.4667 26.6173ZM16.4942 5.22969C16.6065 4.83773 16.8641 4.50339 17.2145 4.29484C17.5648 4.0863 17.9815 4.01927 18.3796 4.10743L19.0072 4.24683C19.2201 4.29416 19.4211 4.38452 19.5979 4.51238C19.7746 4.64024 19.9233 4.80289 20.0349 4.99033C20.1465 5.17778 20.2185 5.38605 20.2467 5.60237C20.2748 5.81869 20.2584 6.03847 20.1985 6.24822L19.8644 7.41741H15.8691L16.4942 5.22969ZM7.94757 5.21209C8.06339 4.82402 8.32166 4.49409 8.67057 4.28848C9.01948 4.08288 9.43323 4.0168 9.82883 4.1035L10.4739 4.24683C10.6868 4.29415 10.8879 4.38452 11.0646 4.51239C11.2413 4.64025 11.3901 4.80291 11.5017 4.99036C11.6132 5.17781 11.6853 5.38609 11.7134 5.60242C11.7416 5.81874 11.7251 6.03853 11.6652 6.24828L11.3312 7.41741H7.29585L7.94757 5.21209ZM3.961 19.1507L4.56587 17.0173H12.0169L11.4073 19.1507H3.961ZM11.1026 20.2173L10.4931 22.3506H3.05354L3.6584 20.2173H11.1026ZM4.86826 15.9507L5.47313 13.8174H11.3064L12.3138 15.9507H4.86826ZM5.77559 12.7507L6.38045 10.6174H9.79556L10.803 12.7507H5.77559ZM2.14642 25.5506L2.75128 23.4173H10.1884L9.57883 25.5506H2.14642ZM22.4001 28.7506H19.538L10.6158 9.85632C10.5726 9.76492 10.5043 9.68766 10.419 9.63356C10.3336 9.57945 10.2346 9.55073 10.1335 9.55073H6.68285L6.98531 8.48407H11.3955L20.3178 27.3783C20.361 27.4697 20.4292 27.547 20.5146 27.6011C20.6 27.6552 20.699 27.6839 20.8001 27.6839H22.4001V28.7506ZM23.4667 28.7506V27.1506C23.4667 27.0092 23.4105 26.8735 23.3105 26.7735C23.2105 26.6735 23.0748 26.6173 22.9334 26.6173H21.138L13.5825 10.6174H18.3288L26.8917 28.7506H23.4667ZM30.9333 28.7506H28.0713L19.149 9.85632C19.1059 9.76492 19.0376 9.68766 18.9522 9.63356C18.8668 9.57945 18.7678 9.55073 18.6668 9.55073H15.2596L15.5643 8.48407H19.9288L28.8511 27.3783C28.8943 27.4697 28.9625 27.547 29.0479 27.6011C29.1333 27.6552 29.2323 27.6839 29.3334 27.6839H30.9333V28.7506Z" fill="#888888"/>
</g>
<defs>
<clipPath id="clip0_317_8471">
<rect width="32" height="32" fill="white"/>
</clipPath>
</defs>
</svg>
