<svg width="32" height="32" viewBox="0 0 32 32" fill="none" xmlns="http://www.w3.org/2000/svg">
<g clip-path="url(#clip0_317_8473)">
<path d="M31.0735 8.7209L17.1696 2.38281C16.4267 2.04412 15.5733 2.04412 14.8304 2.38281L0.926995 8.7209C0.364435 8.9634 0 9.51733 0 10.13C0 10.7426 0.364435 11.2965 0.926995 11.539L5.33334 13.5476V20.7966C5.33334 22.0233 6.12853 23.1331 7.46664 24.0237V25.6723C6.42646 25.9409 5.74828 26.941 5.88365 28.0067C6.01903 29.0723 6.92571 29.8711 7.99995 29.8711C9.0742 29.8711 9.98088 29.0723 10.1163 28.0067C10.2516 26.941 9.57344 25.9409 8.53326 25.6723V24.6366C10.8822 25.6769 13.4315 26.1867 15.9999 26.1299C21.9812 26.1299 26.6665 23.7869 26.6665 20.7966V13.5476L31.0729 11.539C31.6354 11.2965 31.9999 10.7426 31.9999 10.13C31.9999 9.51733 31.6354 8.9634 31.0729 8.7209H31.0735ZM9.0667 27.7298C9.0667 28.319 8.58914 28.7965 8.00002 28.7965C7.41089 28.7965 6.93333 28.319 6.93333 27.7298C6.93333 27.1407 7.41089 26.6632 8.00002 26.6632C8.58914 26.6632 9.0667 27.1408 9.0667 27.7298ZM6.40003 20.7966V14.0339L7.46671 14.5203V22.7096C6.84715 22.2598 6.45696 21.5601 6.40003 20.7966ZM25.5999 20.7966C25.5999 23.1096 21.2037 25.0632 16 25.0632C13.0202 25.0632 10.3099 24.4232 8.53332 23.4392V15.0067L14.8304 17.8771C15.5732 18.2163 16.4267 18.2163 17.1695 17.8771L25.5999 14.0339V20.7966H25.5999ZM30.6308 10.5678L16.7275 16.9065C16.2648 17.114 15.7357 17.114 15.2731 16.9065L9.23151 14.1524L13.9349 11.7711C14.571 12.106 15.2812 12.2753 16 12.2633C17.7941 12.2633 19.1999 11.3263 19.1999 10.13C19.1999 8.93377 17.7941 7.99671 16 7.99671C14.2059 7.99671 12.8 8.93377 12.8 10.13C12.8029 10.4443 12.8994 10.7504 13.0773 11.0094L7.98877 13.5854L1.36912 10.5678C1.18718 10.4988 1.06681 10.3246 1.06681 10.13C1.06681 9.93539 1.18712 9.76108 1.36912 9.69208L15.2725 3.35349C15.7351 3.14581 16.2643 3.14581 16.7269 3.35349L30.6308 9.69214C30.8128 9.76114 30.9331 9.93539 30.9331 10.13C30.9331 10.3246 30.8128 10.4989 30.6308 10.5678ZM13.8667 10.13C13.8667 9.62652 14.7787 9.06327 16 9.06327C17.2213 9.06327 18.1333 9.62646 18.1333 10.13C18.1333 10.6334 17.2213 11.1966 16 11.1966C14.7787 11.1966 13.8667 10.6334 13.8667 10.13Z" fill="#888888"/>
</g>
<defs>
<clipPath id="clip0_317_8473">
<rect width="32" height="32" fill="white"/>
</clipPath>
</defs>
</svg>
