<svg width="32" height="32" viewBox="0 0 32 32" fill="none" xmlns="http://www.w3.org/2000/svg">
<path d="M29.9986 16.4616C29.9889 16.336 29.9322 16.2187 29.8397 16.1331C29.7473 16.0475 29.626 16 29.5 16H22.3256L21.9994 9.475C21.993 9.34688 21.9375 9.22613 21.8446 9.13772C21.7517 9.0493 21.6283 9 21.5 9H18V6.5C18.0003 5.78002 17.8277 5.07049 17.4968 4.43105C17.1659 3.79161 16.6864 3.24093 16.0985 2.82529C15.5106 2.40965 14.8315 2.14119 14.1183 2.04248C13.4051 1.94376 12.6787 2.01767 12 2.258C11.3213 2.01767 10.5949 1.94376 9.88167 2.04248C9.16849 2.14119 8.48942 2.40965 7.90153 2.82529C7.31363 3.24093 6.83409 3.79161 6.50321 4.43105C6.17232 5.07049 5.99975 5.78002 6 6.5V9H2.5C2.37172 9 2.24835 9.0493 2.1554 9.13772C2.06245 9.22613 2.00704 9.34688 2.00063 9.475L1.00063 29.475C0.997237 29.5427 1.00764 29.6103 1.03121 29.6739C1.05478 29.7374 1.09101 29.7955 1.13772 29.8446C1.18442 29.8937 1.24062 29.9328 1.3029 29.9595C1.36518 29.9862 1.43223 30 1.5 30H30.5C30.5689 30 30.6371 29.9858 30.7002 29.9582C30.7633 29.9306 30.8201 29.8903 30.8669 29.8397C30.9137 29.7892 30.9496 29.7295 30.9722 29.6644C30.9949 29.5994 31.0038 29.5303 30.9986 29.4616L29.9986 16.4616ZM28.5 27.4014L29.5658 29H27.4345L28.5 27.4014ZM29.8547 27.6307L28.9851 26.3263L28.0525 17H29.037L29.8547 27.6307ZM27.0475 17L27.985 26.3716L26.8875 28.0175L26.0399 17H27.0475ZM21.3244 16H20.3833L20.0303 10H21.0241L21.3244 16ZM19.0286 10L19.3816 16H18.3253L18.0253 10H19.0286ZM13.5 3C14.4279 3.00106 15.3176 3.37015 15.9737 4.0263C16.6299 4.68244 16.9989 5.57207 17 6.5V9H15V6.5C15 5.82961 14.85 5.16772 14.5609 4.56285C14.2719 3.95798 13.8512 3.42545 13.3296 3.00431C13.3861 3.00163 13.4428 3 13.5 3ZM12 3.33838C12.598 3.6226 13.1032 4.07042 13.4572 4.62997C13.8112 5.18952 13.9994 5.8379 14 6.5V9H10V6.5C10.0006 5.8379 10.1888 5.18952 10.5428 4.62997C10.8968 4.07042 11.402 3.6226 12 3.33838ZM7 6.5C7.00106 5.57207 7.37015 4.68244 8.0263 4.0263C8.68244 3.37015 9.57207 3.00106 10.5 3C10.5572 3 10.6139 3.00163 10.6704 3.00431C10.1488 3.42544 9.72809 3.95797 9.43904 4.56284C9.15 5.16772 8.99999 5.82961 9 6.5V9H7V6.5ZM13.037 29H2.02563L2.97563 10H6V13.2324L4.72263 14.084C4.65414 14.1297 4.59799 14.1915 4.55916 14.2641C4.52032 14.3367 4.5 14.4177 4.5 14.5V18.5C4.5 18.6326 4.55268 18.7598 4.64645 18.8536C4.74022 18.9473 4.86739 19 5 19H8C8.13261 19 8.25979 18.9473 8.35355 18.8536C8.44732 18.7598 8.5 18.6326 8.5 18.5V14.5C8.5 14.4177 8.47968 14.3367 8.44084 14.2641C8.40201 14.1915 8.34586 14.1297 8.27738 14.084L7 13.2324V10H14V11.5C14 11.6326 14.0527 11.7598 14.1464 11.8536C14.2402 11.9473 14.3674 12 14.5 12C14.6326 12 14.7598 11.9473 14.8536 11.8536C14.9473 11.7598 15 11.6326 15 11.5V10H17.0244L17.3244 16H14.5C14.374 16 14.2527 16.0475 14.1603 16.1331C14.0678 16.2187 14.0111 16.336 14.0014 16.4616L13.037 29ZM6.5 14.1009L7.5 14.7676V18H5.5V14.7676L6.5 14.1009ZM14.963 17H25.037L25.9601 29H14.0399L14.963 17Z" fill="#888888"/>
<path d="M22.5 19C22.3674 19 22.2402 19.0527 22.1464 19.1464C22.0527 19.2402 22 19.3674 22 19.5V23.5C21.9996 23.8977 21.8414 24.279 21.5602 24.5602C21.279 24.8414 20.8977 24.9996 20.5 25H19.5C19.1023 24.9996 18.721 24.8414 18.4398 24.5602C18.1586 24.279 18.0004 23.8977 18 23.5V19.5C18 19.3674 17.9473 19.2402 17.8536 19.1464C17.7598 19.0527 17.6326 19 17.5 19C17.3674 19 17.2402 19.0527 17.1464 19.1464C17.0527 19.2402 17 19.3674 17 19.5V23.5C17.0007 24.1628 17.2644 24.7983 17.7331 25.2669C18.2017 25.7356 18.8372 25.9993 19.5 26H20.5C21.1628 25.9993 21.7983 25.7356 22.2669 25.2669C22.7356 24.7983 22.9993 24.1628 23 23.5V19.5C23 19.3674 22.9473 19.2402 22.8536 19.1464C22.7598 19.0527 22.6326 19 22.5 19Z" fill="#888888"/>
</svg>
